<?xml version="1.0" encoding="UTF-8" standalone="no"?>
<!-- Generator: Adobe Illustrator 13.0.0, SVG Export Plug-In . SVG Version: 6.00 Build 14948)  -->
<!DOCTYPE svg  PUBLIC '-//W3C//DTD SVG 1.1//EN'  'http://www.w3.org/Graphics/SVG/1.1/DTD/svg11.dtd'>
<svg id="Layer_1" xmlns="http://www.w3.org/2000/svg" xml:space="preserve" height="22.2px" viewBox="0 0 33.3 22.2" width="33.3px" version="1.1" y="0px" x="0px" xmlns:xlink="http://www.w3.org/1999/xlink" enable-background="new 0 0 33.3 22.2">
		<path d="m7.7 7.101h-6.2c-0.6 0-1.1-0.1-1.5-0.3v1.5c0 0.5 0.8 0.899 1.8 0.899h5.9c1.3 0 2.5 0.4 3.5 1.2 0.9 0.7 1.5 1.601 1.8 2.7 0 0.199-0.1 0.3-0.3 0.3h-12.4c-0.2 0-0.3 0.1-0.3 0.2v0.8c0 2 0.8 3.8 2.3 5.2 1.5 1.5 3.3 2.199 5.5 2.199h6c0.7 0 1.3 0.101 1.7 0.301v-1.5c0-0.4-0.8-0.801-1.8-0.801h-5.9c-1.3 0-2.5-0.399-3.5-1.199-0.9-0.7-1.5-1.6-1.8-2.7 0-0.2 0.1-0.3 0.3-0.3h12.4c0.1 0 0.3-0.1 0.3-0.2v-0.8c0-2.1-0.8-3.8-2.3-5.3-1.5-1.4-3.3-2.199-5.5-2.199" fill="#fff"/>
		<path d="m33.1 20.7v-0.5c0-2.699-1.199-4.8-3.5-6.199-0.3-0.101-0.399-0.201-0.399-0.201 0.2 0 0.399-0.1 0.5-0.198 1.6-1 2.7-2.4 3.1-4.101 0-0.1 0.102-0.2 0.102-0.3 0.199-0.9 0-1.6-0.5-1.8h-1.703c0.1 0.3 0.1 0.7 0 1.1-0.201 1-0.701 1.9-1.5 2.7-1.102 1-2.4 1.5-3.9 1.5-2 0-3.7 0.6-5.1 1.9-0.4 0.398-0.4 0.6-0.4 0.6v-13.501c0-0.9-0.4-1.7-0.9-1.7h-1.699c0.199 0.4 0.299 0.9 0.398 1.5v19.101c0 0.601-0.1 1.198-0.301 1.601h1.602c0.5 0 0.898-0.801 0.898-1.801v-0.3c0-1.5 0.5-2.7 1.602-3.802 1.1-1 2.398-1.5 3.898-1.5 1.602 0 2.9 0.5 3.9 1.5 1.1 1 1.6 2.302 1.6 3.802v0.5c0 0.899 0.4 1.601 0.9 1.601h1.6c-0.097-0.403-0.198-0.903-0.198-1.502" fill="#fff"/>
</svg>
