<?xml version="1.0" encoding="UTF-8"?>
<!-- Generator: Adobe Illustrator 16.0.0, SVG Export Plug-In . SVG Version: 6.00 Build 0)  -->
<!DOCTYPE svg PUBLIC "-//W3C//DTD SVG 1.1//EN" "http://www.w3.org/Graphics/SVG/1.1/DTD/svg11.dtd">
<svg version="1.1" id="Layer_1" xmlns="http://www.w3.org/2000/svg" xmlns:xlink="http://www.w3.org/1999/xlink" x="0px" y="0px" width="84px" height="37.6px" viewBox="0 0 84 37.6" enable-background="new 0 0 84 37.6" xml:space="preserve">
<g>
	<path fill="#FFFFFF" d="M21.929,33.31h-9.524c-2.082,0-3.94-0.674-5.572-2.021c-1.477-1.221-2.459-2.721-2.949-4.502   c-0.003-0.021-0.005-0.041-0.005-0.061c0-0.273,0.211-0.494,0.479-0.516h19.923c0.23-0.018,0.419-0.186,0.468-0.406   c0.005-0.037,0.008-0.074,0.012-0.111c0.046-0.406,0.071-0.826,0.071-1.256c0-3.457-1.207-6.392-3.619-8.805   c-2.414-2.413-5.352-3.62-8.807-3.62H2.79c-0.131-0.007-0.259-0.016-0.384-0.029c-0.871-0.044-1.648-0.205-2.234-0.443   c-0.007-0.003-0.014-0.006-0.021-0.01c-0.013-0.003-0.026-0.008-0.04-0.008c-0.069,0-0.125,0.054-0.13,0.121v0.369v2.038   c0.011,0.816,1.324,1.478,2.967,1.511h9.457c2.131,0,3.999,0.664,5.61,1.99c1.456,1.198,2.428,2.71,2.915,4.532   c0.002,0.018,0.006,0.037,0.006,0.059c0,0.281-0.224,0.508-0.502,0.518v0.002H0.556c-0.243,0.008-0.444,0.182-0.493,0.412   c0,0.002-0.001,0.006-0.001,0.01c-0.055,0.438-0.081,0.889-0.081,1.354c0,3.406,1.219,6.332,3.657,8.768   c2.436,2.439,5.359,3.656,8.767,3.656h9.57c0.021,0.002,0.042,0.002,0.063,0.004c1.024,0.014,1.942,0.191,2.606,0.467   c0.004,0.002,0.007,0.002,0.009,0.004c0.015,0.006,0.03,0.01,0.047,0.01c0.068,0,0.122-0.051,0.13-0.117V36.86v-2.045   C24.813,34.013,23.538,33.36,21.929,33.31"/>
	<path fill="#FFFFFF" d="M52.799,37.241c-0.002-0.006-0.004-0.01-0.006-0.016c-0.23-0.668-0.373-1.535-0.373-2.486   c-0.001-0.016-0.002-0.033-0.004-0.051v-0.826c0-4.521-1.873-7.984-5.617-10.391c-0.418-0.229-0.707-0.297-0.707-0.297   c0.264-0.004,0.607-0.176,0.864-0.326c2.622-1.73,4.3-3.994,5.033-6.792c0.048-0.181,0.092-0.364,0.132-0.55   c0.281-1.463-0.027-2.729-0.764-2.929c-0.032-0.009-0.064-0.012-0.098-0.017h-2.468c-0.067,0.006-0.119,0.06-0.122,0.127   c0.005,0.02,0.01,0.039,0.013,0.059c0.087,0.47,0.099,1.024,0.017,1.612c-0.326,1.7-1.135,3.195-2.424,4.486   c-1.729,1.728-3.824,2.593-6.285,2.593c-3.172,0-5.922,1.057-8.256,3.17c-0.626,0.602-0.62,1.021-0.62,1.021v-0.873h0.001V3.087   c-0.048-1.575-0.673-2.827-1.45-2.898h-2.513c-0.065,0.008-0.117,0.061-0.117,0.128c0,0.016,0.006,0.029,0.01,0.043   c0.003,0.007,0.006,0.014,0.009,0.02c0.268,0.604,0.451,1.439,0.494,2.383c0.008,0.093,0.014,0.187,0.017,0.281v31.495   c-0.002,0.051-0.003,0.102-0.007,0.15c-0.007,0.982-0.163,1.869-0.413,2.535c-0.004,0.006-0.005,0.012-0.008,0.018   c-0.004,0.014-0.009,0.027-0.009,0.041c0,0.068,0.051,0.121,0.118,0.129h2.4c0.798-0.057,1.437-1.354,1.469-2.971v-0.578   c0-2.461,0.863-4.557,2.592-6.283c1.727-1.729,3.822-2.592,6.283-2.592c2.51,0,4.615,0.854,6.32,2.557   c1.703,1.703,2.556,3.811,2.556,6.318v0.789c0.077,1.49,0.673,2.662,1.417,2.76h2.406c0.066-0.008,0.117-0.061,0.117-0.129   C52.807,37.269,52.803,37.255,52.799,37.241"/>
	<path fill="#FFFFFF" d="M82.734,24.106c-0.707-1.039-1.801-1.986-3.256-2.824c0.943-0.627,1.689-1.344,2.227-2.142   c0.705-1.048,1.062-2.257,1.062-3.592c0-1.326-0.372-2.607-1.105-3.809c-0.729-1.196-1.751-2.156-3.038-2.854   c-2.596-1.4-5.878-1.363-8.488-0.013c-1.33,0.688-2.388,1.646-3.146,2.851c-0.759,1.211-1.144,2.473-1.144,3.751   c0,1.273,0.365,2.479,1.085,3.584c0.553,0.851,1.324,1.6,2.3,2.232c-1.511,0.871-2.64,1.857-3.364,2.938   c-0.869,1.299-1.31,2.775-1.31,4.391c0,2.195,0.829,4.227,2.464,6.037c1.651,1.828,4.084,2.754,7.23,2.754   c3.262,0,5.814-1.051,7.59-3.123c1.444-1.695,2.178-3.676,2.178-5.889C84.02,26.808,83.588,25.364,82.734,24.106z M78.32,17.466   c-0.394,0.673-0.951,1.214-1.658,1.605c-0.71,0.393-1.475,0.592-2.273,0.592c-1.248,0-2.357-0.441-3.295-1.313   c-0.928-0.859-1.398-1.82-1.398-2.854c0-1.043,0.431-1.959,1.279-2.721c0.869-0.778,1.986-1.174,3.323-1.174   c1.518,0,2.677,0.407,3.448,1.209c0.777,0.808,1.172,1.692,1.172,2.63C78.918,16.107,78.717,16.789,78.32,17.466z M74.279,33.728   c-1.184,0-2.231-0.223-3.114-0.66c-0.868-0.43-1.552-1.045-2.03-1.832c-0.483-0.789-0.729-1.639-0.729-2.523   c0-1.441,0.579-2.727,1.721-3.818c1.149-1.1,2.596-1.658,4.299-1.658c1.584,0,2.953,0.541,4.07,1.605   c1.109,1.055,1.672,2.27,1.672,3.613c0,1.398-0.531,2.639-1.581,3.689C77.539,33.194,76.09,33.728,74.279,33.728z"/>
</g>
</svg>